PathFileType	4	(X/Y/Z)	 New Session 103.trc
DataRate	CameraRate	NumFrames	NumMarkers	Units	OrigDataRate	OrigDataStartFrame	OrigNumFrames
100	100	24	14	m	100	388	620
Frame#	Time	C7			T8			IJ			PX			AA			AC			AI			TS			SC			GH			LE			ME			US			RS			
		X1	Y1	Z1	X2	Y2	Z2	X3	Y3	Z3	X4	Y4	Z4	X5	Y5	Z5	X6	Y6	Z6	X7	Y7	Z7	X8	Y8	Z8	X9	Y9	Z9	X10	Y10	Z10	X11	Y11	Z11	X12	Y12	Z12	X13	Y13	Z13	X14	Y14	Z14	
388	3.8800	0.025756	0.098315	0.162293	0.020477	-0.116686	0.227683	-0.001225	-0.001134	-0.002542	-0.003825	-0.143677	-0.071552	0.223715	-0.009541	0.132857	0.170589	0.037548	0.067984	0.107597	0.016869	0.197427	0.104983	-0.099462	0.227597	0.023864	0.006389	0.001788	0.232462	0.006219	0.092367	0.309954	-0.227541	-0.065324	0.226225	-0.268729	-0.087922	0.281143	-0.137213	-0.330736	0.327828	-0.091226	-0.290280	
389	3.8900	0.025696	0.098311	0.162467	0.020411	-0.116677	0.227946	-0.001399	-0.001155	-0.002401	-0.003915	-0.143687	-0.071392	0.223626	-0.009580	0.132861	0.170529	0.037575	0.068017	0.107537	0.016850	0.197472	0.104920	-0.099436	0.227735	0.023867	0.006395	0.001935	0.232399	0.006183	0.092369	0.309799	-0.227760	-0.065318	0.226383	-0.269048	-0.087595	0.284035	-0.146463	-0.334599	0.330927	-0.099435	-0.295467	
390	3.9000	0.025653	0.098317	0.162609	0.020366	-0.116662	0.228190	-0.001552	-0.001177	-0.002282	-0.004032	-0.143697	-0.071271	0.223572	-0.009602	0.132803	0.170496	0.037609	0.067981	0.107506	0.016848	0.197481	0.104875	-0.099404	0.227847	0.023840	0.006417	0.002033	0.232349	0.006144	0.092309	0.309785	-0.228035	-0.065317	0.226497	-0.269433	-0.087163	0.286626	-0.155753	-0.338017	0.333936	-0.107894	-0.300294	
391	3.9100	0.025631	0.098327	0.162712	0.020343	-0.116642	0.228411	-0.001683	-0.001196	-0.002185	-0.004166	-0.143709	-0.071180	0.223563	-0.009588	0.132697	0.170467	0.037626	0.067888	0.107511	0.016875	0.197464	0.104857	-0.099365	0.227927	0.023764	0.006440	0.002104	0.232306	0.006124	0.092191	0.309866	-0.228395	-0.065346	0.226525	-0.269869	-0.086636	0.289043	-0.165122	-0.341026	0.336827	-0.116561	-0.304756	
392	3.9200	0.025625	0.098338	0.162776	0.020342	-0.116616	0.228605	-0.001792	-0.001211	-0.002108	-0.004296	-0.143728	-0.071100	0.223597	-0.009533	0.132560	0.170417	0.037615	0.067766	0.107551	0.016932	0.197431	0.104870	-0.099320	0.227978	0.023659	0.006450	0.002172	0.232258	0.006138	0.092032	0.309925	-0.228871	-0.065405	0.226429	-0.270336	-0.086060	0.291462	-0.174643	-0.343680	0.339600	-0.125365	-0.308832	
393	3.9300	0.025628	0.098351	0.162818	0.020361	-0.116586	0.228770	-0.001878	-0.001221	-0.002047	-0.004404	-0.143752	-0.071012	0.223658	-0.009449	0.132412	0.170345	0.037606	0.067648	0.107619	0.017011	0.197391	0.104914	-0.099269	0.228003	0.023554	0.006444	0.002247	0.232185	0.006178	0.091854	0.309861	-0.229477	-0.065464	0.226187	-0.270815	-0.085501	0.294023	-0.184362	-0.346006	0.342275	-0.134237	-0.312492	
394	3.9400	0.025630	0.098370	0.162856	0.020397	-0.116552	0.228905	-0.001948	-0.001227	-0.002003	-0.004486	-0.143772	-0.070914	0.223723	-0.009359	0.132267	0.170255	0.037617	0.067557	0.107696	0.017097	0.197351	0.104983	-0.099212	0.228009	0.023467	0.006429	0.002323	0.232072	0.006220	0.091674	0.309648	-0.230195	-0.065488	0.225799	-0.271295	-0.085023	0.296744	-0.194257	-0.347983	0.344876	-0.143157	-0.315735	
395	3.9500	0.025628	0.098395	0.162898	0.020447	-0.116514	0.229010	-0.002005	-0.001230	-0.001971	-0.004553	-0.143789	-0.070817	0.223768	-0.009293	0.132128	0.170152	0.037629	0.067497	0.107764	0.017176	0.197311	0.105068	-0.099153	0.227997	0.023408	0.006425	0.002385	0.231941	0.006239	0.091509	0.309285	-0.230984	-0.065468	0.225291	-0.271771	-0.084650	0.299498	-0.204241	-0.349574	0.347416	-0.152151	-0.318592	
396	3.9600	0.025624	0.098419	0.162939	0.020508	-0.116474	0.229085	-0.002057	-0.001232	-0.001951	-0.004627	-0.143805	-0.070739	0.223775	-0.009274	0.131986	0.170048	0.037610	0.067444	0.107809	0.017237	0.197262	0.105157	-0.099098	0.227965	0.023364	0.006441	0.002419	0.231830	0.006219	0.091359	0.308763	-0.231796	-0.065409	0.224706	-0.272248	-0.084350	0.302084	-0.214200	-0.350761	0.349890	-0.161253	-0.321089	
397	3.9700	0.025628	0.098438	0.162965	0.020577	-0.116432	0.229133	-0.002108	-0.001236	-0.001940	-0.004719	-0.143821	-0.070686	0.223744	-0.009312	0.131825	0.169964	0.037557	0.067358	0.107831	0.017278	0.197192	0.105244	-0.099053	0.227906	0.023308	0.006471	0.002422	0.231762	0.006145	0.091197	0.308171	-0.232582	-0.065313	0.224096	-0.272750	-0.084054	0.304350	-0.224063	-0.351531	0.352280	-0.170471	-0.323230	
398	3.9800	0.025648	0.098449	0.162961	0.020649	-0.116389	0.229155	-0.002163	-0.001245	-0.001939	-0.004834	-0.143840	-0.070654	0.223698	-0.009395	0.131629	0.169921	0.037479	0.067200	0.107845	0.017307	0.197095	0.105322	-0.099021	0.227819	0.023222	0.006501	0.002399	0.231738	0.006017	0.090985	0.307666	-0.233328	-0.065172	0.223498	-0.273312	-0.083683	0.306285	-0.233842	-0.351886	0.354557	-0.179771	-0.325001	
399	3.9900	0.025693	0.098450	0.162918	0.020723	-0.116345	0.229153	-0.002223	-0.001258	-0.001947	-0.004971	-0.143872	-0.070636	0.223675	-0.009496	0.131388	0.169917	0.037388	0.066955	0.107875	0.017334	0.196967	0.105391	-0.099002	0.227708	0.023105	0.006516	0.002353	0.231752	0.005852	0.090701	0.307323	-0.234068	-0.064983	0.222918	-0.273958	-0.083205	0.308007	-0.243608	-0.351847	0.356698	-0.189107	-0.326396	
400	4.0000	0.025762	0.098445	0.162835	0.020798	-0.116300	0.229130	-0.002286	-0.001276	-0.001965	-0.005123	-0.143921	-0.070624	0.223696	-0.009581	0.131109	0.169941	0.037301	0.066641	0.107940	0.017373	0.196813	0.105453	-0.098988	0.227583	0.022976	0.006509	0.002288	0.231786	0.005682	0.090354	0.307024	-0.234871	-0.064751	0.222336	-0.274676	-0.082640	0.309677	-0.253432	-0.351422	0.358697	-0.198434	-0.327432	
401	4.0100	0.025851	0.098441	0.162723	0.020874	-0.116255	0.229090	-0.002350	-0.001297	-0.001994	-0.005281	-0.143983	-0.070614	0.223759	-0.009627	0.130812	0.169971	0.037237	0.066304	0.108049	0.017434	0.196641	0.105512	-0.098971	0.227452	0.022858	0.006483	0.002207	0.231830	0.005547	0.089978	0.306565	-0.235810	-0.064496	0.221709	-0.275415	-0.082046	0.311412	-0.263323	-0.350618	0.360570	-0.207722	-0.328124	
402	4.0200	0.025946	0.098446	0.162599	0.020952	-0.116208	0.229036	-0.002413	-0.001320	-0.002033	-0.005436	-0.144044	-0.070607	0.223845	-0.009630	0.130523	0.169987	0.037197	0.065992	0.108194	0.017516	0.196458	0.105576	-0.098941	0.227320	0.022762	0.006451	0.002118	0.231886	0.005477	0.089614	0.305837	-0.236902	-0.064231	0.220996	-0.276110	-0.081488	0.313255	-0.273265	-0.349471	0.362351	-0.216959	-0.328485	
403	4.0300	0.026040	0.098463	0.162473	0.021033	-0.116160	0.228973	-0.002475	-0.001342	-0.002086	-0.005581	-0.144089	-0.070602	0.223927	-0.009603	0.130261	0.169976	0.037160	0.065730	0.108349	0.017613	0.196267	0.105647	-0.098892	0.227188	0.022689	0.006428	0.002031	0.231958	0.005476	0.089284	0.304925	-0.238082	-0.063938	0.220170	-0.276711	-0.081010	0.315162	-0.283233	-0.348015	0.364072	-0.226164	-0.328524	
404	4.0400	0.026124	0.098491	0.162351	0.021118	-0.116110	0.228903	-0.002533	-0.001363	-0.002154	-0.005708	-0.144113	-0.070605	0.223987	-0.009575	0.130032	0.169947	0.037105	0.065508	0.108486	0.017711	0.196071	0.105729	-0.098828	0.227052	0.022633	0.006424	0.001951	0.232023	0.005505	0.088980	0.303998	-0.239249	-0.063605	0.219240	-0.277207	-0.080620	0.316995	-0.293168	-0.346256	0.365754	-0.235364	-0.328241	
405	4.0500	0.026198	0.098526	0.162235	0.021209	-0.116057	0.228827	-0.002585	-0.001382	-0.002241	-0.005814	-0.144128	-0.070620	0.224021	-0.009571	0.129821	0.169931	0.037057	0.065289	0.108588	0.017797	0.195874	0.105819	-0.098755	0.226912	0.022589	0.006432	0.001870	0.232059	0.005508	0.088688	0.303159	-0.240340	-0.063245	0.218241	-0.277627	-0.080284	0.318589	-0.302952	-0.344198	0.367405	-0.244567	-0.327612	
406	4.0600	0.026268	0.098568	0.162121	0.021307	-0.116001	0.228745	-0.002631	-0.001399	-0.002349	-0.005900	-0.144154	-0.070651	0.224038	-0.009602	0.129605	0.169956	0.037044	0.065040	0.108653	0.017859	0.195680	0.105914	-0.098682	0.226781	0.022552	0.006431	0.001783	0.232072	0.005458	0.088402	0.302420	-0.241352	-0.062875	0.217215	-0.278027	-0.079937	0.319870	-0.312498	-0.341855	0.369012	-0.253766	-0.326628	
407	4.0700	0.026343	0.098618	0.162003	0.021414	-0.115941	0.228657	-0.002668	-0.001416	-0.002481	-0.005972	-0.144206	-0.070700	0.224061	-0.009656	0.129362	0.170020	0.037062	0.064746	0.108697	0.017897	0.195486	0.106007	-0.098611	0.226673	0.022520	0.006405	0.001684	0.232091	0.005366	0.088121	0.301735	-0.242332	-0.062482	0.216186	-0.278466	-0.079520	0.320877	-0.321764	-0.339207	0.370540	-0.262928	-0.325311	
408	4.0800	0.026434	0.098674	0.161870	0.021529	-0.115879	0.228561	-0.002697	-0.001430	-0.002636	-0.006042	-0.144282	-0.070766	0.224116	-0.009705	0.129075	0.170097	0.037066	0.064420	0.108744	0.017924	0.195284	0.106098	-0.098543	0.226590	0.022495	0.006356	0.001567	0.232131	0.005254	0.087830	0.301023	-0.243345	-0.062027	0.215153	-0.278981	-0.079010	0.321686	-0.330696	-0.336208	0.371931	-0.271987	-0.323699	
409	4.0900	0.026552	0.098735	0.161709	0.021653	-0.115812	0.228458	-0.002715	-0.001444	-0.002812	-0.006120	-0.144369	-0.070846	0.224224	-0.009713	0.128742	0.170152	0.037001	0.064081	0.108822	0.017958	0.195061	0.106191	-0.098480	0.226515	0.022476	0.006299	0.001428	0.232179	0.005139	0.087491	0.300199	-0.244455	-0.061464	0.214105	-0.279576	-0.078423	0.322334	-0.339214	-0.332855	0.373135	-0.280864	-0.321819	
410	4.1000	0.026703	0.098790	0.161507	0.021784	-0.115744	0.228345	-0.002724	-0.001455	-0.003005	-0.006209	-0.144446	-0.070940	0.224385	-0.009663	0.128368	0.170175	0.036871	0.063736	0.108946	0.018015	0.194810	0.106293	-0.098421	0.226417	0.022457	0.006252	0.001267	0.232233	0.005044	0.087077	0.299208	-0.245699	-0.060767	0.213032	-0.280222	-0.077793	0.322834	-0.347346	-0.329228	0.374163	-0.289513	-0.319670	
411	4.1100	0.026883	0.098835	0.161264	0.021923	-0.115673	0.228224	-0.002720	-0.001466	-0.003211	-0.006304	-0.144504	-0.071049	0.224573	-0.009572	0.127965	0.170184	0.036735	0.063377	0.109118	0.018102	0.194526	0.106412	-0.098364	0.226271	0.022439	0.006222	0.001086	0.232317	0.004984	0.086589	0.298080	-0.247071	-0.059943	0.211921	-0.280884	-0.077144	0.323226	-0.355256	-0.325450	0.375078	-0.297950	-0.317232	
